<svg width="15" height="16" viewBox="0 0 15 16" fill="none" xmlns="http://www.w3.org/2000/svg">
<path d="M0.5 0C0.223858 0 0 0.223858 0 0.5C0 0.776142 0.223858 1 0.5 1V0.5V0ZM14 1C14.2761 1 14.5 0.776142 14.5 0.5C14.5 0.223858 14.2761 0 14 0V0.5V1ZM0.5 15C0.223858 15 0 15.2239 0 15.5C0 15.7761 0.223858 16 0.5 16V15.5V15ZM14 16C14.2761 16 14.5 15.7761 14.5 15.5C14.5 15.2239 14.2761 15 14 15V15.5V16ZM4.97862 5.07023C4.8103 5.28914 4.85132 5.60306 5.07023 5.77138C5.28914 5.9397 5.60306 5.89868 5.77138 5.67977L5.375 5.375L4.97862 5.07023ZM8.72894 5.67977C8.89726 5.89868 9.21118 5.9397 9.43009 5.77138C9.649 5.60306 9.69001 5.28914 9.52169 5.07023L9.12532 5.375L8.72894 5.67977ZM9.51906 10.9328C9.68903 10.7151 9.65039 10.4009 9.43276 10.2309C9.21512 10.061 8.9009 10.0996 8.73094 10.3172L9.125 10.625L9.51906 10.9328ZM5.77138 10.3202C5.60306 10.1013 5.28914 10.0603 5.07023 10.2286C4.85132 10.3969 4.8103 10.7109 4.97862 10.9298L5.375 10.625L5.77138 10.3202ZM0.5 0.5V1H14V0.5V0H0.5V0.5ZM0.5 15.5V16H14V15.5V15H0.5V15.5ZM7.25032 12.5H7.75032V3.5H7.25032H6.75032V12.5H7.25032ZM5.375 5.375L5.77138 5.67977C6.02349 5.35189 6.36126 4.90239 6.69421 4.53147C6.86102 4.34565 7.01279 4.19537 7.13944 4.09534C7.20253 4.04551 7.24856 4.01685 7.2778 4.00236C7.31059 3.98612 7.2974 4 7.25032 4V3.5V3C7.08651 3 6.94256 3.05247 6.83395 3.10626C6.72179 3.16182 6.61579 3.23464 6.51963 3.31058C6.32779 3.46211 6.13219 3.66056 5.95005 3.86348C5.58509 4.27005 5.21866 4.75805 4.97862 5.07023L5.375 5.375ZM7.25032 3.5V4C7.20322 4 7.19003 3.98612 7.2228 4.00235C7.25202 4.01683 7.29803 4.04548 7.36111 4.09531C7.48772 4.19533 7.63946 4.3456 7.80622 4.53143C8.13911 4.90236 8.47679 5.35184 8.72894 5.67977L9.12532 5.375L9.52169 5.07023C9.2817 4.7581 8.91532 4.27007 8.55047 3.86352C8.36836 3.66061 8.1728 3.46214 7.98099 3.31061C7.88484 3.23466 7.77885 3.16183 7.66669 3.10627C7.55808 3.05247 7.41413 3 7.25032 3V3.5ZM7.25032 12.5V13C7.41426 13 7.55702 12.9455 7.66127 12.8928C7.77002 12.8378 7.87319 12.766 7.96688 12.6915C8.154 12.5426 8.34721 12.3473 8.52896 12.1464C8.89332 11.7436 9.26585 11.257 9.51906 10.9328L9.125 10.625L8.73094 10.3172C8.46669 10.6556 8.12129 11.1064 7.78739 11.4755C7.62001 11.6606 7.469 11.8097 7.34433 11.9089C7.28212 11.9584 7.2375 11.9865 7.21002 12.0004C7.17802 12.0166 7.19609 12 7.25032 12V12.5ZM5.375 10.625L4.97862 10.9298C5.21866 11.242 5.5851 11.73 5.95005 12.1365C6.13219 12.3394 6.32779 12.5379 6.51963 12.6894C6.61579 12.7654 6.72179 12.8382 6.83395 12.8937C6.94256 12.9475 7.08651 13 7.25032 13V12.5V12C7.2974 12 7.31059 12.0139 7.2778 11.9976C7.24856 11.9832 7.20253 11.9545 7.13944 11.9047C7.01279 11.8046 6.86102 11.6544 6.69421 11.4685C6.36126 11.0976 6.02349 10.6481 5.77138 10.3202L5.375 10.625Z" fill="#156FEE"/>
</svg>
