<svg width="18" height="18" viewBox="0 0 18 18" fill="none" xmlns="http://www.w3.org/2000/svg">
<path d="M11.4535 14.3446L11.8031 14.7021V14.7021L11.4535 14.3446ZM6.54652 14.3446L6.89615 13.9872H6.89615L6.54652 14.3446ZM6.84743 15.6514L6.478 15.3145L6.478 15.3145L6.84743 15.6514ZM6.62264 15.8786L6.99956 16.2071H6.99956L6.62264 15.8786ZM11.3774 15.8786L11.7543 15.5501L11.7543 15.5501L11.3774 15.8786ZM11.1526 15.6514L11.522 15.3145L11.522 15.3145L11.1526 15.6514ZM14.8571 5.62632L14.3599 5.57414V5.57414L14.8571 5.62632ZM14.5814 8.25442L14.0841 8.20225V8.20225L14.5814 8.25442ZM3.41862 8.25442L2.92135 8.3066H2.92135L3.41862 8.25442ZM3.14288 5.62632L3.64015 5.57414V5.57414L3.14288 5.62632ZM13.717 8.5C13.4408 8.5 13.217 8.72386 13.217 9C13.217 9.27614 13.4408 9.5 13.717 9.5V9V8.5ZM14.7995 2.76274L15.2438 2.53342V2.53342L14.7995 2.76274ZM4.28301 9.5C4.55915 9.5 4.78301 9.27614 4.78301 9C4.78301 8.72386 4.55915 8.5 4.28301 8.5V9V9.5ZM3.20048 2.76274L2.75617 2.53342H2.75617L3.20048 2.76274ZM6 7.5H6.5C6.5 5.59519 7.71764 4.25 9 4.25V3.75V3.25C6.96865 3.25 5.5 5.26267 5.5 7.5H6ZM9 3.75V4.25C10.2824 4.25 11.5 5.59519 11.5 7.5H12L12.5 7.5C12.5 5.26267 11.0313 3.25 9 3.25V3.75ZM12 7.5H11.5C11.5 8.60386 11.0753 9.5558 10.458 10.1355L10.8003 10.5L11.1426 10.8645C11.9823 10.0759 12.5 8.84953 12.5 7.5L12 7.5ZM7.19971 10.5L7.542 10.1355C6.92471 9.5558 6.5 8.60386 6.5 7.5H6H5.5C5.5 8.84953 6.0177 10.0759 6.85742 10.8645L7.19971 10.5ZM11.92 10.5V10L6.08002 10V10.5V11L11.92 11V10.5ZM12.75 11.25H12.25C12.25 12.2486 11.8017 13.3046 11.1039 13.9872L11.4535 14.3446L11.8031 14.7021C12.6936 13.8311 13.25 12.5172 13.25 11.25H12.75ZM11.042 16.5V16H6.95797V16.5V17H11.042V16.5ZM6.54652 14.3446L6.89615 13.9872C6.19833 13.3046 5.75 12.2486 5.75 11.25H5.25H4.75C4.75 12.5172 5.30643 13.8311 6.1969 14.7021L6.54652 14.3446ZM5.25 11.25H5.75C5.75 11.1885 5.77445 11.1344 5.82822 11.0877C5.8861 11.0374 5.97583 11 6.08002 11V10.5V10C5.43287 10 4.75 10.4709 4.75 11.25H5.25ZM12.75 11.25H13.25C13.25 10.4709 12.5671 10 11.92 10V10.5V11C12.0242 11 12.1139 11.0374 12.1718 11.0877C12.2256 11.1344 12.25 11.1885 12.25 11.25H12.75ZM6.62264 15.8786L6.99956 16.2071C7.01806 16.1859 7.04128 16.1629 7.08052 16.1252C7.1149 16.0922 7.16732 16.0427 7.21687 15.9884L6.84743 15.6514L6.478 15.3145C6.45584 15.3388 6.43081 15.3628 6.3882 15.4036C6.35045 15.4399 6.29713 15.4911 6.24571 15.5501L6.62264 15.8786ZM11.1526 15.6514L10.7831 15.9884C10.8327 16.0427 10.8851 16.0922 10.9195 16.1252C10.9587 16.1629 10.9819 16.1859 11.0004 16.2071L11.3774 15.8786L11.7543 15.5501C11.7029 15.4911 11.6495 15.4399 11.6118 15.4036C11.5692 15.3628 11.5442 15.3388 11.522 15.3145L11.1526 15.6514ZM6.54652 14.3446L6.1969 14.7021C6.29612 14.7991 6.3776 14.8807 6.44388 14.9596C6.51048 15.0388 6.54397 15.0948 6.55917 15.1327C6.57143 15.1633 6.56858 15.1728 6.56768 15.177C6.5658 15.1858 6.55379 15.2314 6.478 15.3145L6.84743 15.6514L7.21686 15.9884C7.37926 15.8103 7.49793 15.6101 7.5458 15.3851C7.59463 15.1554 7.56057 14.9431 7.48726 14.7603C7.35525 14.4313 7.07498 14.1621 6.89615 13.9872L6.54652 14.3446ZM11.4535 14.3446L11.1039 13.9872C10.925 14.1621 10.6447 14.4313 10.5127 14.7603C10.4394 14.9431 10.4054 15.1554 10.4542 15.3851C10.5021 15.6101 10.6207 15.8103 10.7831 15.9884L11.1526 15.6514L11.522 15.3145C11.4462 15.2314 11.4342 15.1858 11.4323 15.177C11.4314 15.1728 11.4286 15.1633 11.4408 15.1327C11.456 15.0948 11.4895 15.0388 11.5561 14.9596C11.6224 14.8807 11.7039 14.7991 11.8031 14.7021L11.4535 14.3446ZM6.95797 16.5V16C6.96761 16 6.97436 16.0024 6.97892 16.005C6.9827 16.007 6.99259 16.0133 7.00326 16.0305C7.01483 16.049 7.02857 16.0835 7.02547 16.1288C7.02217 16.1771 7.00221 16.2041 6.99956 16.2071L6.62264 15.8786L6.24572 15.5501C5.97207 15.864 5.96852 16.2612 6.15487 16.5598C6.3218 16.8274 6.62809 17 6.95797 17V16.5ZM11.042 16.5V17C11.3719 17 11.6782 16.8274 11.8451 16.5598C12.0315 16.2612 12.0279 15.864 11.7543 15.5501L11.3774 15.8786L11.0004 16.2071C10.9978 16.2041 10.9778 16.1771 10.9745 16.1288C10.9714 16.0835 10.9852 16.049 10.9967 16.0305C11.0074 16.0133 11.0173 16.007 11.0211 16.005C11.0256 16.0024 11.0324 16 11.042 16V16.5ZM7.05419 1.50706V2.00706L10.9458 2.00706V1.50706V1.00706L7.05419 1.00706V1.50706ZM14.8571 5.62632L14.3599 5.57414L14.0841 8.20225L14.5814 8.25442L15.0787 8.3066L15.3544 5.67849L14.8571 5.62632ZM3.41862 8.25442L3.91589 8.20225L3.64015 5.57414L3.14288 5.62632L2.6456 5.67849L2.92135 8.3066L3.41862 8.25442ZM14.5814 8.25442L14.0841 8.20225C14.0684 8.35209 13.9268 8.5 13.717 8.5V9V9.5C14.3998 9.5 15.0056 9.00326 15.0787 8.3066L14.5814 8.25442ZM14.8571 5.62632L15.3544 5.67849C15.4333 4.92623 15.4969 4.32571 15.4999 3.84206C15.5029 3.35121 15.4454 2.92402 15.2438 2.53342L14.7995 2.76274L14.3552 2.99205C14.4512 3.178 14.5025 3.42025 14.4999 3.83589C14.4973 4.25871 14.4409 4.80172 14.3599 5.57414L14.8571 5.62632ZM4.28301 9V8.5C4.07323 8.5 3.93161 8.35209 3.91589 8.20225L3.41862 8.25442L2.92135 8.3066C2.99444 9.00326 3.60019 9.5 4.28301 9.5V9ZM3.14288 5.62632L3.64015 5.57414C3.5591 4.80172 3.5027 4.25871 3.50009 3.83589C3.49753 3.42025 3.54882 3.178 3.64479 2.99205L3.20048 2.76274L2.75617 2.53342C2.55457 2.92402 2.49708 3.35121 2.50011 3.84206C2.5031 4.32571 2.56668 4.92623 2.6456 5.67849L3.14288 5.62632ZM7.05419 1.50706V1.00706C6.40831 1.00706 5.55305 0.95966 4.79286 1.10625C4.00004 1.25912 3.21908 1.63649 2.75617 2.53342L3.20048 2.76274L3.64479 2.99205C3.92191 2.45512 4.37804 2.20465 4.9822 2.08816C5.61897 1.96537 6.32055 2.00706 7.05419 2.00706V1.50706ZM10.9458 1.50706V2.00706C11.6794 2.00706 12.381 1.96537 13.0178 2.08816C13.622 2.20465 14.0781 2.45512 14.3552 2.99205L14.7995 2.76274L15.2438 2.53342C14.7809 1.63649 14 1.25912 13.2071 1.10625C12.447 0.95966 11.5917 1.00706 10.9458 1.00706V1.50706Z" fill="#156FEE"/>
</svg>
